HIERARCHY
ROOT Hips
{
	OFFSET 0.000000 0.000000 0.000000
	CHANNELS 6 Xposition Yposition Zposition Xrotation Yrotation Zrotation
	JOINT LeftUpLeg_virtual
	{
		OFFSET 0.000000 0.000000 0.000000
		CHANNELS 3 Xrotation Yrotation Zrotation
		JOINT LeftUpLeg
		{
			OFFSET 10.205400 -3.823500 0.155100
			CHANNELS 3 Xrotation Yrotation Zrotation
			JOINT LeftLeg
			{
				OFFSET 0.708757 -12.982077 0.567790
				CHANNELS 3 Xrotation Yrotation Zrotation
				JOINT LeftFoot
				{
					OFFSET -0.708756 -10.717838 -2.184338
					CHANNELS 3 Xrotation Yrotation Zrotation
					JOINT LeftToeBase
					{
						OFFSET 0.108149 -7.191104 7.560241
						CHANNELS 3 Xrotation Yrotation Zrotation
						JOINT LeftToe_End
						{
							OFFSET 0.070230 0.081724 4.490308
							CHANNELS 3 Xrotation Yrotation Zrotation
							End Site
							{
								OFFSET 0 0 0
							}
						}
					}
				}
			}
		}
	}
	JOINT RightUpLeg_virtual
	{
		OFFSET 0.000000 0.000000 0.000000
		CHANNELS 3 Xrotation Yrotation Zrotation
		JOINT RightUpLeg
		{
			OFFSET -10.205400 -3.823500 0.005500
			CHANNELS 3 Xrotation Yrotation Zrotation
			JOINT RightLeg
			{
				OFFSET -0.708756 -12.982134 0.610632
				CHANNELS 3 Xrotation Yrotation Zrotation
				JOINT RightFoot
				{
					OFFSET 0.708754 -10.717769 -1.945823
					CHANNELS 3 Xrotation Yrotation Zrotation
					JOINT RightToeBase
					{
						OFFSET -0.108140 -7.191069 7.372968
						CHANNELS 3 Xrotation Yrotation Zrotation
						JOINT RightToe_End
						{
							OFFSET -0.070227 0.081735 4.479403
							CHANNELS 3 Xrotation Yrotation Zrotation
							End Site
							{
								OFFSET 0 0 0
							}
						}
					}
				}
			}
		}
	}
	JOINT Spine_virtual
	{
		OFFSET 0.000000 0.000000 0.000000
		CHANNELS 3 Xrotation Yrotation Zrotation
		JOINT Spine
		{
			OFFSET 0.000000 6.876099 0.125700
			CHANNELS 3 Xrotation Yrotation Zrotation
			JOINT Spine1
			{
				OFFSET 0.000000 5.730043 0.104720
				CHANNELS 3 Xrotation Yrotation Zrotation
				JOINT Spine1_split
				{
					OFFSET 0.000000 5.730043 0.104720
					CHANNELS 3 Xrotation Yrotation Zrotation
					JOINT Spine2
					{
						OFFSET 0.000000 5.730043 0.104720
						CHANNELS 3 Xrotation Yrotation Zrotation
						JOINT Neck_virtual
						{
							OFFSET 0.000000 0.000000 0.000000
							CHANNELS 3 Xrotation Yrotation Zrotation
							JOINT Neck
							{
								OFFSET 0.000000 10.314075 0.188496
								CHANNELS 3 Xrotation Yrotation Zrotation
								JOINT Head
								{
									OFFSET 0.000000 7.643700 -2.377400
									CHANNELS 3 Xrotation Yrotation Zrotation
									JOINT HeadTop_End
									{
										OFFSET 0.000000 43.788605 -13.619600
										CHANNELS 3 Xrotation Yrotation Zrotation
										End Site
										{
											OFFSET 0 0 0
										}
									}
								}
							}
						}
						JOINT LeftShoulder_virtual
						{
							OFFSET 0.000000 0.000000 0.000000
							CHANNELS 3 Xrotation Yrotation Zrotation
							JOINT LeftShoulder
							{
								OFFSET 2.196100 4.412489 0.087492
								CHANNELS 3 Xrotation Yrotation Zrotation
								JOINT LeftShoulder_split
								{
									OFFSET 2.196100 4.412489 0.087492
									CHANNELS 3 Xrotation Yrotation Zrotation
									JOINT LeftArm
									{
										OFFSET 8.771219 -2.981674 -0.026999
										CHANNELS 3 Xrotation Yrotation Zrotation
										JOINT LeftForeArm
										{
											OFFSET 8.512804 0.000000 -0.000000
											CHANNELS 3 Xrotation Yrotation Zrotation
											JOINT LeftHand
											{
												OFFSET 18.484802 0.000000 -0.000000
												CHANNELS 3 Xrotation Yrotation Zrotation
												End Site
												{
													OFFSET 0 0 0
												}
											}
										}
									}
								}
							}
						}
						JOINT RightShoulder_virtual
						{
							OFFSET 0.000000 0.000000 0.000000
							CHANNELS 3 Xrotation Yrotation Zrotation
							JOINT RightShoulder
							{
								OFFSET -2.196100 4.412496 0.070690
								CHANNELS 3 Xrotation Yrotation Zrotation
								JOINT RightShoulder_split
								{
									OFFSET -2.196100 4.412496 0.070690
									CHANNELS 3 Xrotation Yrotation Zrotation
									JOINT RightArm
									{
										OFFSET -8.771282 -2.981682 -0.094208
										CHANNELS 3 Xrotation Yrotation Zrotation
										JOINT RightForeArm
										{
											OFFSET -8.494598 0.000000 0.000000
											CHANNELS 3 Xrotation Yrotation Zrotation
											JOINT RightHand
											{
												OFFSET -18.483803 0.000000 0.000001
												CHANNELS 3 Xrotation Yrotation Zrotation
												End Site
												{
													OFFSET 0 0 0
												}
											}
										}
									}
								}
							}
						}
					}
				}
			}
		}
	}
}
MOTION
Frames: 4
Frame Time: 0.03333333
4.291107 23.081196 22.872005 0.000000 0.000000 0.000000 -11.756105 -37.441454 -7.653667 -56.714889 -16.058314 29.365760 73.010986 -9.221613 8.318740 4.193553 4.371947 -37.150068 -4.206494 -4.099616 3.209037 0.000000 0.000000 0.000000 -12.283486 -36.454789 -7.934104 -29.566694 -10.579782 -46.722466 78.596653 29.659530 -14.514686 -5.070279 -34.344302 41.738784 -11.798066 10.939478 -16.245453 0.000000 0.000000 0.000000 -9.819812 -35.585118 -8.277412 17.100767 7.441465 -8.235725 3.386135 -0.943897 1.362483 0.237403 -1.266870 0.165839 0.000000 0.000000 0.000000 10.461253 0.601075 2.778691 4.325980 16.871035 5.699678 0.672955 7.535614 -31.144761 0.000000 0.000000 0.000000 7.101901 -1.117373 1.711190 0.320206 -3.774492 -5.383767 7.148855 -4.554714 2.058050 -67.718894 13.222749 -35.692902 173.530819 -64.445382 168.196168 0.000000 0.000000 0.000000 6.042645 -1.904711 1.379060 -1.697421 8.470519 -9.359887 -13.594114 -3.130099 -5.164866 -40.481507 21.319080 86.508622 -141.409464 70.200787 142.344708 0.000000 0.000000 0.000000 
4.023917 23.589851 21.571093 0.000000 0.000000 0.000000 -11.368111 -37.845504 -6.650887 -55.868823 -14.172452 28.652203 67.048354 -7.876222 10.274696 8.541175 3.791461 -40.332219 -4.551439 -4.593585 3.620556 0.000000 0.000000 0.000000 -13.139550 -37.253132 -7.318088 -24.297215 -12.984514 -43.650793 77.796647 28.260014 -16.900232 -17.654847 -37.163271 44.439034 -6.834292 11.103379 -20.586962 0.000000 0.000000 0.000000 -10.788563 -37.107226 -7.968942 14.913684 8.441816 -7.337686 3.514274 -0.825653 0.861122 0.091707 -1.073720 0.157596 0.000000 0.000000 0.000000 10.456834 0.647146 2.247523 4.918531 16.223622 5.134589 0.468585 5.085697 -31.248426 0.000000 0.000000 0.000000 7.289698 -0.995568 1.111516 -0.061527 -0.898384 -5.267483 7.883167 -5.871945 3.325193 -66.761766 14.753352 -37.877654 170.637892 -65.684427 164.549106 0.000000 0.000000 0.000000 6.281997 -1.868447 0.835794 -2.143144 8.790195 -9.166185 -13.948827 -2.580705 -5.980052 -41.242817 21.477641 87.384634 -137.125828 70.899044 138.180874 0.000000 0.000000 0.000000 
3.700114 24.242931 20.210541 0.000000 0.000000 0.000000 -9.996998 -37.410934 -4.931406 -56.225875 -11.775522 28.239448 60.982722 -7.493319 11.512649 13.147937 2.258508 -42.712141 -3.768602 -4.942266 3.974733 0.000000 0.000000 0.000000 -12.159361 -36.934651 -5.680807 -19.951235 -14.611318 -40.286809 75.638772 26.378865 -17.957947 -29.016566 -40.593481 42.703695 0.972692 10.094331 -22.940083 0.000000 0.000000 0.000000 -10.790893 -37.733141 -7.154809 12.987707 8.986517 -6.700515 3.587706 -0.771138 0.408084 -0.009423 -0.700241 0.159871 0.000000 0.000000 0.000000 10.200588 0.669405 1.654651 5.447628 15.421946 4.678409 0.492166 2.734429 -31.572816 0.000000 0.000000 0.000000 7.377520 -0.912420 0.640601 -0.415503 1.635355 -4.685625 8.932508 -6.914099 4.019293 -66.540604 15.045863 -40.245404 168.659541 -67.109949 162.064652 0.000000 0.000000 0.000000 6.392185 -1.810530 0.388057 -2.724336 8.825977 -9.592039 -13.199863 -1.161370 -5.698475 -41.828307 20.854565 88.286192 -136.216471 70.834492 136.723585 0.000000 0.000000 0.000000 
3.387624 24.924648 18.874121 0.000000 0.000000 0.000000 -8.094719 -37.032029 -3.027571 -56.450557 -8.365561 28.006771 55.982986 -7.645330 11.662255 15.437018 1.227008 -42.683693 -3.472497 -5.336828 4.750895 0.000000 0.000000 0.000000 -9.493726 -36.249726 -3.547011 -16.497366 -15.895146 -36.370839 72.141360 24.131784 -17.496178 -38.608344 -43.147015 37.065230 4.380342 9.541665 -23.629529 0.000000 0.000000 0.000000 -9.949050 -37.870411 -5.948145 11.605634 9.011911 -6.462842 3.603690 -0.799746 0.080159 0.011559 -0.362291 0.156869 0.000000 0.000000 0.000000 9.776835 0.685766 1.163642 5.772695 14.556219 4.331831 0.214100 0.778669 -32.252607 0.000000 0.000000 0.000000 7.312913 -0.878485 0.377488 -0.755195 3.521880 -3.734415 9.968956 -7.365498 4.030912 -67.311159 14.571505 -42.303907 167.192062 -68.835603 160.408031 0.000000 0.000000 0.000000 6.265011 -1.737838 0.146231 -3.397524 8.673333 -10.516162 -11.438450 0.249925 -4.351537 -42.678553 19.589997 88.983322 -139.106747 70.228934 138.509474 0.000000 0.000000 0.000000 
